<?xml version="1.0" ?><svg data-name="Livello 1" id="Livello_1" viewBox="0 0 54.73 54.33" xmlns="http://www.w3.org/2000/svg"><defs><style>.cls-1{fill:#aebad3;stroke:#aebad3;stroke-miterlimit:10;}.cls-2{fill:#3b5995;}.cls-3{fill:#fff;}</style></defs><title/><path class="cls-1" d="M25.73,48H5.23v2.5A2.51,2.51,0,0,0,7.73,53h42a2.5,2.5,0,0,0,2.5-2.5V8.5A2.5,2.5,0,0,0,49.73,6h-2.5V45.45A2.55,2.55,0,0,1,44.68,48h-8"/><path class="cls-2" d="M5,1.56H45.23a3,3,0,0,1,2.95,2.95V45.06a3,3,0,0,1-3,3H33.93V29.64h5.89l0.9-6.88H33.93V18.37a3.89,3.89,0,0,1,.69-2.51A3.42,3.42,0,0,1,37.31,15h3.64V8.9a38.29,38.29,0,0,0-5.29-.28A8.75,8.75,0,0,0,29.24,11a9,9,0,0,0-2.41,6.7v5.06h-5.9v6.88h5.9V48.06H5a3,3,0,0,1-3-3V4.51A3,3,0,0,1,5,1.56Z"/><path class="cls-3" d="M33.91,48.06V29.63H39.8l0.9-6.88H33.91V18.37a3.89,3.89,0,0,1,.69-2.51A3.42,3.42,0,0,1,37.3,15h3.64V8.89a38.29,38.29,0,0,0-5.29-.28A8.75,8.75,0,0,0,29.23,11a9,9,0,0,0-2.41,6.7v5.06h-5.9v6.88h5.9V48.06"/></svg>