<?xml version="1.0" ?><svg data-name="Livello 1" id="Livello_1" viewBox="0 0 56.04 45.03" xmlns="http://www.w3.org/2000/svg"><defs><style>.cls-1{fill:#90d2f6;}.cls-2{fill:none;stroke:#36a2ee;stroke-linejoin:round;}.cls-3{fill:#36a2ee;}</style></defs><title/><path class="cls-1" d="M13.17,31.21a9.47,9.47,0,0,0,.83,1c0.37-.25.73-0.51,1.09-0.79A10.25,10.25,0,0,1,13.17,31.21Z"/><path class="cls-1" d="M10.33,24.43l-0.13,0,0,0.05Z"/><path class="cls-1" d="M54.5,9.58a19.6,19.6,0,0,1-5.67,1.52,9.58,9.58,0,0,0,4.33-5.42A19.28,19.28,0,0,1,46.91,8l-0.22-.21a20.62,20.62,0,0,1-3.13,2.82c0,0.29,0,.71,0,1.28a27.92,27.92,0,0,1-1.15,7.9,28.86,28.86,0,0,1-3.52,7.57,29.72,29.72,0,0,1-5.62,6.41,25,25,0,0,1-7.86,4.45,28.68,28.68,0,0,1-9.84,1.66,28.84,28.84,0,0,1-4.71-.39c-0.66.06-1.33,0.1-2,.1a19,19,0,0,1-2.37-.13,27.26,27.26,0,0,0,15.1,4.42,28.68,28.68,0,0,0,9.84-1.66,25,25,0,0,0,7.86-4.45,29.72,29.72,0,0,0,5.62-6.41,28.86,28.86,0,0,0,3.52-7.57,27.92,27.92,0,0,0,1.15-7.9c0-.57,0-1,0-1.28A20.57,20.57,0,0,0,54.5,9.58Z"/><path class="cls-1" d="M12.82,10l0.35,0.17A27.55,27.55,0,0,1,9.85,6.74a9.88,9.88,0,0,0-.56,1.11A28.85,28.85,0,0,0,12.82,10Z"/><path class="cls-1" d="M44.3,6A10.59,10.59,0,0,1,42.83,7.1a18.29,18.29,0,0,0,2.47-.45A9.31,9.31,0,0,0,44.3,6Z"/><path class="cls-2" d="M48.5,5.58a20.57,20.57,0,0,1-4.94,5.08c0,0.29,0,.71,0,1.28a27.92,27.92,0,0,1-1.15,7.9,28.86,28.86,0,0,1-3.52,7.57,29.72,29.72,0,0,1-5.62,6.41,25,25,0,0,1-7.86,4.45,28.68,28.68,0,0,1-9.84,1.66A27.26,27.26,0,0,1,.5,35.51a19,19,0,0,0,2.37.13,19.25,19.25,0,0,0,12.22-4.21,9.84,9.84,0,0,1-9.2-6.82,12.66,12.66,0,0,0,1.86.15,10.26,10.26,0,0,0,2.58-.33A9.72,9.72,0,0,1,4.68,21a9.49,9.49,0,0,1-2.23-6.26V14.65A9.75,9.75,0,0,0,6.89,15.9a9.88,9.88,0,0,1-3.2-3.5A9.61,9.61,0,0,1,2.51,7.71a9.61,9.61,0,0,1,1.34-5,27.73,27.73,0,0,0,9,7.27,27.6,27.6,0,0,0,11.31,3,11.14,11.14,0,0,1-.24-2.26,9.48,9.48,0,0,1,2.88-7,9.87,9.87,0,0,1,14.14.23,19.28,19.28,0,0,0,6.25-2.37A9.58,9.58,0,0,1,42.83,7.1,19.6,19.6,0,0,0,48.5,5.58Z"/><path class="cls-3" d="M48.5,5.58a20.57,20.57,0,0,1-4.94,5.08c0,0.29,0,.71,0,1.28a27.92,27.92,0,0,1-1.15,7.9,28.86,28.86,0,0,1-3.52,7.57,29.72,29.72,0,0,1-5.62,6.41,25,25,0,0,1-7.86,4.45,28.68,28.68,0,0,1-9.84,1.66A27.26,27.26,0,0,1,.5,35.51a19,19,0,0,0,2.37.13,19.25,19.25,0,0,0,12.22-4.21,9.84,9.84,0,0,1-9.2-6.82,12.66,12.66,0,0,0,1.86.15,10.26,10.26,0,0,0,2.58-.33A9.72,9.72,0,0,1,4.68,21a9.49,9.49,0,0,1-2.23-6.26V14.65A9.75,9.75,0,0,0,6.89,15.9a9.88,9.88,0,0,1-3.2-3.5A9.61,9.61,0,0,1,2.51,7.71a9.61,9.61,0,0,1,1.34-5,27.73,27.73,0,0,0,9,7.27,27.6,27.6,0,0,0,11.31,3,11.14,11.14,0,0,1-.24-2.26,9.48,9.48,0,0,1,2.88-7,9.87,9.87,0,0,1,14.14.23,19.28,19.28,0,0,0,6.25-2.37A9.58,9.58,0,0,1,42.83,7.1,19.6,19.6,0,0,0,48.5,5.58Z"/></svg>