<?xml version="1.0" ?><svg data-name="Livello 1" id="Livello_1" viewBox="0 0 56 41.86" xmlns="http://www.w3.org/2000/svg"><defs><style>.cls-1{fill:#de9d9f;}.cls-2{fill:#fff;}.cls-3{fill:#b01217;}.cls-4,.cls-5{fill:none;stroke-miterlimit:10;}.cls-4{stroke:#b01217;}.cls-5{stroke:#fff;}</style></defs><title/><path class="cls-1" d="M54.19,18.07c-0.08-1.3-.18-2.52-0.33-3.66a10.09,10.09,0,0,0-.71-2.71,8.34,8.34,0,0,0-.77-1.56A4.46,4.46,0,0,0,52,9.64a6.42,6.42,0,0,0-.78-0.71,4.79,4.79,0,0,0-.83-0.52c-0.28-.14-0.53-0.26-0.75-0.35a10.6,10.6,0,0,1,.26,1.35c0.15,1.14.25,2.36,0.33,3.66s0.14,2.3.14,3v4.71a59.6,59.6,0,0,1-.48,7.77,10.47,10.47,0,0,1-.67,2.66,6.68,6.68,0,0,1-.85,1.65L48,33.35a5.69,5.69,0,0,1-.78.71,3.78,3.78,0,0,1-.83.51c-0.28.14-.53,0.25-0.75,0.34a3.31,3.31,0,0,1-.76.21l-0.64.12a4.56,4.56,0,0,1-.62.08l-0.44,0q-6.72.51-16.79,0.51-5.55,0-9.63-.17c-2.73-.08-4.52-0.15-5.37-0.2L10,35.39l-1-.11C8.43,35.19,7.94,35.1,7.61,35a4.86,4.86,0,0,1-.54-0.19,9.39,9.39,0,0,0,.47,1.46,9,9,0,0,0,.78,1.57,4.29,4.29,0,0,0,.41.49,5.11,5.11,0,0,0,1.52,1.1,8.07,8.07,0,0,0,1.36.57c0.33,0.08.82,0.17,1.46,0.26l1,0.11,1.32,0.11c0.85,0,2.64.12,5.37,0.2s5.93,0.14,9.63.17q10.06,0,16.79-.51l0.44,0a4.56,4.56,0,0,0,.62-0.08l0.64-.12a3.31,3.31,0,0,0,.76-0.21c0.22-.09.47-0.2,0.75-0.34a3.79,3.79,0,0,0,.83-0.51A5.7,5.7,0,0,0,52,38.35l0.38-.45a6.67,6.67,0,0,0,.85-1.65,10.47,10.47,0,0,0,.66-2.66,59.6,59.6,0,0,0,.48-7.77V21.11C54.33,20.37,54.27,19.36,54.19,18.07Z"/><polygon class="cls-2" points="34.36 18.52 21.39 25.21 21.39 11.74 34.36 18.52"/><path class="cls-3" d="M50.35,20.82a57.91,57.91,0,0,1-.49,7.77,10.47,10.47,0,0,1-.67,2.66,6.66,6.66,0,0,1-.85,1.65L48,33.35a5.69,5.69,0,0,1-.78.71,3.79,3.79,0,0,1-.83.51c-0.28.14-.53,0.25-0.75,0.34a3.31,3.31,0,0,1-.76.21l-0.64.12a4.56,4.56,0,0,1-.62.08l-0.44,0q-6.72.51-16.79,0.51-5.55,0-9.63-.17c-2.73-.08-4.52-0.15-5.37-0.2L10,35.39l-1-.11C8.43,35.19,7.94,35.1,7.61,35a8.07,8.07,0,0,1-1.36-.57,5.11,5.11,0,0,1-1.52-1.1,4.29,4.29,0,0,1-.41-0.49,9,9,0,0,1-.78-1.57,10.29,10.29,0,0,1-.71-2.7c-0.14-1.15-.25-2.36-0.33-3.66s-0.13-2.31-.15-3V17.18a56.29,56.29,0,0,1,.48-7.77A11.1,11.1,0,0,1,3.5,6.74,6.69,6.69,0,0,1,4.36,5.1l0.37-.46a6.42,6.42,0,0,1,.78-0.71,5.21,5.21,0,0,1,.83-0.52c0.28-.14.53-0.26,0.75-0.35a3.46,3.46,0,0,1,.76-0.21l0.63-.12A4.14,4.14,0,0,1,9.1,2.65l0.45,0q6.72-.5,16.8-0.49c3,0,5.89,0,8.69.12s4.84,0.17,6.15.26l1.95,0.11,0.46,0a4,4,0,0,1,.61.08l0.63,0.12a3.31,3.31,0,0,1,.76.21c0.22,0.09.47,0.21,0.75,0.35a4.8,4.8,0,0,1,.83.52,6.42,6.42,0,0,1,.78.71,4.45,4.45,0,0,1,.42.5,8.32,8.32,0,0,1,.77,1.56,10.09,10.09,0,0,1,.71,2.71c0.15,1.14.26,2.36,0.34,3.66s0.13,2.3.15,3v4.71Zm-29,4.39,13-6.69-13-6.78V25.21Z"/><path class="cls-4" d="M26.35,2.12c3,0,5.89,0,8.69.12s4.84,0.17,6.15.26l1.95,0.11,0.46,0a4,4,0,0,1,.61.08l0.63,0.12a3.31,3.31,0,0,1,.76.21c0.22,0.09.47,0.21,0.75,0.35a4.8,4.8,0,0,1,.83.52,6.42,6.42,0,0,1,.78.71,4.45,4.45,0,0,1,.42.5,8.32,8.32,0,0,1,.77,1.56,10.09,10.09,0,0,1,.71,2.71c0.15,1.14.26,2.36,0.34,3.66s0.13,2.3.15,3v4.71a57.91,57.91,0,0,1-.49,7.77,10.47,10.47,0,0,1-.67,2.66,6.66,6.66,0,0,1-.85,1.65L48,33.35a5.69,5.69,0,0,1-.78.71,3.79,3.79,0,0,1-.83.51c-0.28.14-.53,0.25-0.75,0.34a3.31,3.31,0,0,1-.76.21l-0.64.12a4.56,4.56,0,0,1-.62.08l-0.44,0q-6.72.51-16.79,0.51-5.55,0-9.63-.17c-2.73-.08-4.52-0.15-5.37-0.2L10,35.39l-1-.11C8.43,35.19,7.94,35.1,7.61,35a8.07,8.07,0,0,1-1.36-.57,5.11,5.11,0,0,1-1.52-1.1,4.29,4.29,0,0,1-.41-0.49,9,9,0,0,1-.78-1.57,10.29,10.29,0,0,1-.71-2.7c-0.14-1.15-.25-2.36-0.33-3.66s-0.13-2.31-.15-3V17.18a56.29,56.29,0,0,1,.48-7.77A11.1,11.1,0,0,1,3.5,6.74,6.69,6.69,0,0,1,4.36,5.1l0.37-.46a6.42,6.42,0,0,1,.78-0.71,5.21,5.21,0,0,1,.83-0.52c0.28-.14.53-0.26,0.75-0.35a3.46,3.46,0,0,1,.76-0.21l0.63-.12A4.14,4.14,0,0,1,9.1,2.65l0.45,0Q16.27,2.11,26.35,2.12Z"/><polygon class="cls-5" points="21.39 25.21 34.36 18.52 21.39 11.74 21.39 25.21"/><path class="cls-3" d="M50.35,20.82a57.91,57.91,0,0,1-.49,7.77,10.47,10.47,0,0,1-.67,2.66,6.66,6.66,0,0,1-.85,1.65L48,33.35a5.69,5.69,0,0,1-.78.71,3.79,3.79,0,0,1-.83.51c-0.28.14-.53,0.25-0.75,0.34a3.31,3.31,0,0,1-.76.21l-0.64.12a4.56,4.56,0,0,1-.62.08l-0.44,0q-6.72.51-16.79,0.51-5.55,0-9.63-.17c-2.73-.08-4.52-0.15-5.37-0.2L10,35.39l-1-.11C8.43,35.19,7.94,35.1,7.61,35a8.07,8.07,0,0,1-1.36-.57,5.11,5.11,0,0,1-1.52-1.1,4.29,4.29,0,0,1-.41-0.49,9,9,0,0,1-.78-1.57,10.29,10.29,0,0,1-.71-2.7c-0.14-1.15-.25-2.36-0.33-3.66s-0.13-2.31-.15-3V17.18a56.29,56.29,0,0,1,.48-7.77A11.1,11.1,0,0,1,3.5,6.74,6.69,6.69,0,0,1,4.36,5.1l0.37-.46a6.42,6.42,0,0,1,.78-0.71,5.21,5.21,0,0,1,.83-0.52c0.28-.14.53-0.26,0.75-0.35a3.46,3.46,0,0,1,.76-0.21l0.63-.12A4.14,4.14,0,0,1,9.1,2.65l0.45,0q6.72-.5,16.8-0.49c3,0,5.89,0,8.69.12s4.84,0.17,6.15.26l1.95,0.11,0.46,0a4,4,0,0,1,.61.08l0.63,0.12a3.31,3.31,0,0,1,.76.21c0.22,0.09.47,0.21,0.75,0.35a4.8,4.8,0,0,1,.83.52,6.42,6.42,0,0,1,.78.71,4.45,4.45,0,0,1,.42.5,8.32,8.32,0,0,1,.77,1.56,10.09,10.09,0,0,1,.71,2.71c0.15,1.14.26,2.36,0.34,3.66s0.13,2.3.15,3v4.71Zm-29,4.39,13-6.69-13-6.78V25.21Z"/></svg>